<svg xmlns="http://www.w3.org/2000/svg" viewBox="0 0 48 48" fill="none">
  <defs>
    <linearGradient id="g1" x1="0%" y1="0%" x2="100%" y2="100%">
      <stop offset="0%" style="stop-color:#22d3ee"/>
      <stop offset="100%" style="stop-color:#0891b2"/>
    </linearGradient>
    <linearGradient id="g2" x1="0%" y1="100%" x2="100%" y2="0%">
      <stop offset="0%" style="stop-color:#a855f7"/>
      <stop offset="100%" style="stop-color:#22d3ee"/>
    </linearGradient>
  </defs>

  <!-- Background -->
  <rect x="2" y="2" width="44" height="44" rx="12" fill="url(#g1)"/>

  <!-- Uptrend line -->
  <path d="M8 32 L16 26 L22 30 L30 18 L38 12" stroke="white" stroke-width="3" stroke-linecap="round" stroke-linejoin="round" fill="none" opacity="0.95"/>

  <!-- Arrow head -->
  <path d="M34 10 L40 12 L38 18" stroke="white" stroke-width="2.5" stroke-linecap="round" stroke-linejoin="round" fill="none" opacity="0.95"/>

  <!-- AI indicator -->
  <circle cx="30" cy="18" r="5" fill="white" opacity="0.95"/>
  <circle cx="30" cy="18" r="2.5" fill="url(#g2)"/>

  <!-- Data points -->
  <circle cx="16" cy="26" r="2" fill="white" opacity="0.8"/>
  <circle cx="22" cy="30" r="2" fill="white" opacity="0.8"/>

  <!-- Bottom bars -->
  <rect x="10" y="36" width="4" height="6" rx="1" fill="white" opacity="0.6"/>
  <rect x="16" y="34" width="4" height="8" rx="1" fill="white" opacity="0.7"/>
  <rect x="22" y="32" width="4" height="10" rx="1" fill="white" opacity="0.8"/>
  <rect x="28" y="30" width="4" height="12" rx="1" fill="white" opacity="0.9"/>
  <rect x="34" y="28" width="4" height="14" rx="1" fill="white"/>
</svg>
